<mxfile host="app.diagrams.net" modified="2020-12-23T11:59:23.446Z" agent="5.0 (Macintosh; Intel Mac OS X 10_15_6) AppleWebKit/605.1.15 (KHTML, like Gecko) Version/14.0.1 Safari/605.1.15" etag="1JCPhk9A9lmHJs8n1ENe" version="14.1.1" type="github" pages="3">
  <diagram id="BTbw_I0JEO3VkIrEt3Dl" name="Страница 1">
    <mxGraphModel dx="1186" dy="645" grid="1" gridSize="10" guides="1" tooltips="1" connect="1" arrows="1" fold="1" page="1" pageScale="1" pageWidth="827" pageHeight="1169" math="0" shadow="0">
      <root>
        <mxCell id="0" />
        <mxCell id="1" parent="0" />
        <mxCell id="nGEpsQQ6XiPXrFiXFI85-10" style="edgeStyle=orthogonalEdgeStyle;rounded=0;orthogonalLoop=1;jettySize=auto;html=1;exitX=1;exitY=0.5;exitDx=0;exitDy=0;" edge="1" parent="1" source="nGEpsQQ6XiPXrFiXFI85-1" target="nGEpsQQ6XiPXrFiXFI85-9">
          <mxGeometry relative="1" as="geometry" />
        </mxCell>
        <mxCell id="nGEpsQQ6XiPXrFiXFI85-1" value="БулКо-цех" style="rounded=0;whiteSpace=wrap;html=1;" vertex="1" parent="1">
          <mxGeometry x="350" y="280" width="130" height="80" as="geometry" />
        </mxCell>
        <mxCell id="nGEpsQQ6XiPXrFiXFI85-4" style="edgeStyle=orthogonalEdgeStyle;rounded=0;orthogonalLoop=1;jettySize=auto;html=1;exitX=1;exitY=0.5;exitDx=0;exitDy=0;" edge="1" parent="1" source="nGEpsQQ6XiPXrFiXFI85-3" target="nGEpsQQ6XiPXrFiXFI85-1">
          <mxGeometry relative="1" as="geometry" />
        </mxCell>
        <mxCell id="nGEpsQQ6XiPXrFiXFI85-3" value="Поставки продуктов&amp;nbsp;" style="rounded=0;whiteSpace=wrap;html=1;" vertex="1" parent="1">
          <mxGeometry x="160" y="290" width="120" height="60" as="geometry" />
        </mxCell>
        <mxCell id="nGEpsQQ6XiPXrFiXFI85-6" style="edgeStyle=orthogonalEdgeStyle;rounded=0;orthogonalLoop=1;jettySize=auto;html=1;exitX=0.5;exitY=1;exitDx=0;exitDy=0;entryX=0.5;entryY=0;entryDx=0;entryDy=0;" edge="1" parent="1" source="nGEpsQQ6XiPXrFiXFI85-5" target="nGEpsQQ6XiPXrFiXFI85-1">
          <mxGeometry relative="1" as="geometry" />
        </mxCell>
        <mxCell id="nGEpsQQ6XiPXrFiXFI85-5" value="Работники" style="rounded=0;whiteSpace=wrap;html=1;" vertex="1" parent="1">
          <mxGeometry x="355" y="150" width="120" height="60" as="geometry" />
        </mxCell>
        <mxCell id="nGEpsQQ6XiPXrFiXFI85-8" style="edgeStyle=orthogonalEdgeStyle;rounded=0;orthogonalLoop=1;jettySize=auto;html=1;exitX=0.5;exitY=0;exitDx=0;exitDy=0;entryX=0.5;entryY=1;entryDx=0;entryDy=0;" edge="1" parent="1" source="nGEpsQQ6XiPXrFiXFI85-7" target="nGEpsQQ6XiPXrFiXFI85-1">
          <mxGeometry relative="1" as="geometry" />
        </mxCell>
        <mxCell id="nGEpsQQ6XiPXrFiXFI85-7" value="Оборудование&lt;br&gt;для автоматизации системы&amp;nbsp;" style="rounded=0;whiteSpace=wrap;html=1;" vertex="1" parent="1">
          <mxGeometry x="355" y="420" width="120" height="60" as="geometry" />
        </mxCell>
        <mxCell id="nGEpsQQ6XiPXrFiXFI85-9" value="Готовая продукция" style="rounded=0;whiteSpace=wrap;html=1;" vertex="1" parent="1">
          <mxGeometry x="550" y="290" width="120" height="60" as="geometry" />
        </mxCell>
      </root>
    </mxGraphModel>
  </diagram>
  <diagram id="AKhaRPWYnFu_OMpvEbCC" name="Страница 2">
    <mxGraphModel dx="1186" dy="645" grid="1" gridSize="10" guides="1" tooltips="1" connect="1" arrows="1" fold="1" page="1" pageScale="1" pageWidth="827" pageHeight="1169" math="0" shadow="0">
      <root>
        <mxCell id="6wvqjP0iySUWCF_7wlj6-0" />
        <mxCell id="6wvqjP0iySUWCF_7wlj6-1" parent="6wvqjP0iySUWCF_7wlj6-0" />
        <mxCell id="o30Mj27RvbLUeEyYZ_Xz-0" value="Оборудование для автоматизации работы системы" style="rounded=0;whiteSpace=wrap;html=1;" vertex="1" parent="6wvqjP0iySUWCF_7wlj6-1">
          <mxGeometry x="80" y="40" width="680" height="40" as="geometry" />
        </mxCell>
        <mxCell id="QHB8lzIvSxNC3CruLj46-0" value="Закупка &amp;nbsp;качественного оборудование" style="rounded=0;whiteSpace=wrap;html=1;" vertex="1" parent="6wvqjP0iySUWCF_7wlj6-1">
          <mxGeometry x="80" y="130" width="120" height="60" as="geometry" />
        </mxCell>
        <mxCell id="PUnpbS0TN84MkkGF6QxS-0" value="Качественная&lt;br&gt;установка оборудования&amp;nbsp;" style="rounded=0;whiteSpace=wrap;html=1;" vertex="1" parent="6wvqjP0iySUWCF_7wlj6-1">
          <mxGeometry x="180" y="230" width="120" height="60" as="geometry" />
        </mxCell>
        <mxCell id="PUnpbS0TN84MkkGF6QxS-1" value="Введение &amp;nbsp;отчетов о качестве работы оборудования" style="rounded=0;whiteSpace=wrap;html=1;" vertex="1" parent="6wvqjP0iySUWCF_7wlj6-1">
          <mxGeometry x="280" y="330" width="120" height="60" as="geometry" />
        </mxCell>
        <mxCell id="PUnpbS0TN84MkkGF6QxS-2" value="Своевременная починка при возникновение ошибок в работе" style="rounded=0;whiteSpace=wrap;html=1;" vertex="1" parent="6wvqjP0iySUWCF_7wlj6-1">
          <mxGeometry x="480" y="400" width="120" height="60" as="geometry" />
        </mxCell>
        <mxCell id="PUnpbS0TN84MkkGF6QxS-3" value="Своевременное обучение персонала работе с оборудованием" style="rounded=0;whiteSpace=wrap;html=1;" vertex="1" parent="6wvqjP0iySUWCF_7wlj6-1">
          <mxGeometry x="350" y="180" width="120" height="60" as="geometry" />
        </mxCell>
        <mxCell id="PUnpbS0TN84MkkGF6QxS-8" value="" style="endArrow=classic;html=1;entryX=0;entryY=0.5;entryDx=0;entryDy=0;" edge="1" parent="6wvqjP0iySUWCF_7wlj6-1" target="PUnpbS0TN84MkkGF6QxS-0">
          <mxGeometry width="50" height="50" relative="1" as="geometry">
            <mxPoint x="40" y="80" as="sourcePoint" />
            <mxPoint x="40" y="290" as="targetPoint" />
            <Array as="points">
              <mxPoint x="40" y="260" />
            </Array>
          </mxGeometry>
        </mxCell>
        <mxCell id="PUnpbS0TN84MkkGF6QxS-9" value="" style="endArrow=classic;html=1;entryX=0;entryY=0.5;entryDx=0;entryDy=0;" edge="1" parent="6wvqjP0iySUWCF_7wlj6-1" target="QHB8lzIvSxNC3CruLj46-0">
          <mxGeometry width="50" height="50" relative="1" as="geometry">
            <mxPoint x="40" y="160" as="sourcePoint" />
            <mxPoint x="440" y="240" as="targetPoint" />
          </mxGeometry>
        </mxCell>
        <mxCell id="PUnpbS0TN84MkkGF6QxS-11" value="" style="endArrow=classic;html=1;entryX=0;entryY=0.5;entryDx=0;entryDy=0;" edge="1" parent="6wvqjP0iySUWCF_7wlj6-1" target="PUnpbS0TN84MkkGF6QxS-1">
          <mxGeometry width="50" height="50" relative="1" as="geometry">
            <mxPoint x="40" y="250" as="sourcePoint" />
            <mxPoint x="440" y="240" as="targetPoint" />
            <Array as="points">
              <mxPoint x="40" y="360" />
            </Array>
          </mxGeometry>
        </mxCell>
        <mxCell id="PUnpbS0TN84MkkGF6QxS-12" value="" style="endArrow=classic;html=1;entryX=0.25;entryY=0;entryDx=0;entryDy=0;" edge="1" parent="6wvqjP0iySUWCF_7wlj6-1" target="PUnpbS0TN84MkkGF6QxS-3">
          <mxGeometry width="50" height="50" relative="1" as="geometry">
            <mxPoint x="40" y="100" as="sourcePoint" />
            <mxPoint x="440" y="240" as="targetPoint" />
            <Array as="points">
              <mxPoint x="380" y="100" />
            </Array>
          </mxGeometry>
        </mxCell>
        <mxCell id="PUnpbS0TN84MkkGF6QxS-13" value="" style="endArrow=classic;html=1;exitX=1;exitY=0.5;exitDx=0;exitDy=0;entryX=0.75;entryY=0;entryDx=0;entryDy=0;" edge="1" parent="6wvqjP0iySUWCF_7wlj6-1" source="PUnpbS0TN84MkkGF6QxS-1" target="PUnpbS0TN84MkkGF6QxS-2">
          <mxGeometry width="50" height="50" relative="1" as="geometry">
            <mxPoint x="390" y="290" as="sourcePoint" />
            <mxPoint x="440" y="240" as="targetPoint" />
            <Array as="points">
              <mxPoint x="570" y="360" />
            </Array>
          </mxGeometry>
        </mxCell>
        <mxCell id="PUnpbS0TN84MkkGF6QxS-14" value="Система контроля &lt;br&gt;бесперебойной&lt;br&gt;работы" style="text;html=1;align=center;verticalAlign=middle;resizable=0;points=[];autosize=1;" vertex="1" parent="6wvqjP0iySUWCF_7wlj6-1">
          <mxGeometry x="445" y="310" width="120" height="50" as="geometry" />
        </mxCell>
        <mxCell id="PUnpbS0TN84MkkGF6QxS-15" value="Система обеспечения&amp;nbsp;&lt;br&gt;качества продукта" style="text;html=1;align=center;verticalAlign=middle;resizable=0;points=[];autosize=1;" vertex="1" parent="6wvqjP0iySUWCF_7wlj6-1">
          <mxGeometry x="40" y="220" width="140" height="30" as="geometry" />
        </mxCell>
        <mxCell id="PUnpbS0TN84MkkGF6QxS-16" value="Система обеспечения&amp;nbsp;&lt;br&gt;корректной работы с оборудованием" style="text;html=1;align=center;verticalAlign=middle;resizable=0;points=[];autosize=1;" vertex="1" parent="6wvqjP0iySUWCF_7wlj6-1">
          <mxGeometry x="390" y="100" width="230" height="30" as="geometry" />
        </mxCell>
        <mxCell id="PUnpbS0TN84MkkGF6QxS-17" value="" style="endArrow=classic;html=1;exitX=1;exitY=0.25;exitDx=0;exitDy=0;entryX=0;entryY=0.25;entryDx=0;entryDy=0;" edge="1" parent="6wvqjP0iySUWCF_7wlj6-1" source="PUnpbS0TN84MkkGF6QxS-3" target="PUnpbS0TN84MkkGF6QxS-19">
          <mxGeometry width="50" height="50" relative="1" as="geometry">
            <mxPoint x="390" y="290" as="sourcePoint" />
            <mxPoint x="740" y="210" as="targetPoint" />
          </mxGeometry>
        </mxCell>
        <mxCell id="PUnpbS0TN84MkkGF6QxS-18" value="" style="endArrow=classic;html=1;exitX=1;exitY=0.5;exitDx=0;exitDy=0;entryX=0.5;entryY=1;entryDx=0;entryDy=0;" edge="1" parent="6wvqjP0iySUWCF_7wlj6-1" source="PUnpbS0TN84MkkGF6QxS-2" target="PUnpbS0TN84MkkGF6QxS-19">
          <mxGeometry width="50" height="50" relative="1" as="geometry">
            <mxPoint x="390" y="290" as="sourcePoint" />
            <mxPoint x="680" y="210" as="targetPoint" />
            <Array as="points">
              <mxPoint x="760" y="430" />
            </Array>
          </mxGeometry>
        </mxCell>
        <mxCell id="PUnpbS0TN84MkkGF6QxS-19" value="Качественный продукт" style="rounded=0;whiteSpace=wrap;html=1;" vertex="1" parent="6wvqjP0iySUWCF_7wlj6-1">
          <mxGeometry x="700" y="180" width="120" height="60" as="geometry" />
        </mxCell>
      </root>
    </mxGraphModel>
  </diagram>
  <diagram id="82uH0UM5t2Vb3QR2rHHC" name="Страница 3">
    <mxGraphModel dx="1186" dy="645" grid="1" gridSize="10" guides="1" tooltips="1" connect="1" arrows="1" fold="1" page="1" pageScale="1" pageWidth="827" pageHeight="1169" math="0" shadow="0">
      <root>
        <mxCell id="YavwhHdRZ_P_Wo6StO-G-0" />
        <mxCell id="YavwhHdRZ_P_Wo6StO-G-1" parent="YavwhHdRZ_P_Wo6StO-G-0" />
        <mxCell id="YavwhHdRZ_P_Wo6StO-G-2" value="" style="rounded=0;whiteSpace=wrap;html=1;" vertex="1" parent="YavwhHdRZ_P_Wo6StO-G-1">
          <mxGeometry x="40" y="60" width="760" height="60" as="geometry" />
        </mxCell>
      </root>
    </mxGraphModel>
  </diagram>
</mxfile>
